<svg width="1114" height="515" viewBox="0 0 1114 515" fill="none" xmlns="http://www.w3.org/2000/svg">
<g clip-path="url(#clip0_1906_141)">
<path d="M153.561 344.733L171.162 339.547L166.027 357.198L171.162 374.799L153.561 369.664L135.91 374.799L141.096 357.198L135.91 339.547L153.561 344.733Z" fill="black" stroke="white" stroke-miterlimit="10"/>
</g>
<ellipse cx="383.662" cy="78.5411" rx="383.662" ry="78.5411" transform="matrix(0.885194 0.465223 -0.501014 0.865439 309.986 -36.8286)" stroke="black"/>
<ellipse cx="383.662" cy="78.5411" rx="383.662" ry="78.5411" transform="matrix(0.885194 0.465223 -0.501014 0.865439 282.268 11.0391)" stroke="black"/>
<ellipse cx="383.662" cy="78.5411" rx="383.662" ry="78.5411" transform="matrix(0.885194 0.465223 -0.501014 0.865439 254.564 58.9072)" stroke="black"/>
<circle cx="480.826" cy="55.29" r="15.5" fill="#B9FF66"/>
<circle cx="770.324" cy="385.786" r="10" fill="#B9FF66"/>
<circle cx="93.4316" cy="47.29" r="23.5" fill="black"/>
<path d="M891.766 238.384C909.666 228.981 916.59 206.903 907.23 189.072C897.87 171.242 875.772 164.41 857.872 173.814C839.972 183.218 833.048 205.295 842.408 223.126C851.768 240.957 873.866 247.788 891.766 238.384Z" fill="black"/>
<path d="M858.147 198.022C859.87 195.672 862.415 194.223 865.313 193.909C867.505 193.674 869.541 194.144 871.46 195.32C872.439 195.907 873.3 196.651 874.123 197.552C874.71 196.495 875.415 195.555 876.237 194.771C877.842 193.204 879.761 192.303 881.914 192.068C884.812 191.755 887.631 192.617 889.824 194.536C891.977 196.416 893.348 199.158 893.7 202.253C894.053 205.426 893.191 208.481 890.999 211.85C889.041 214.866 886.065 218 882.619 221.682C881.445 222.935 880.113 224.345 878.743 225.834C878.391 226.225 877.882 226.5 877.333 226.539C876.785 226.617 876.276 226.46 875.806 226.147C874.123 224.972 872.517 223.875 871.108 222.935C866.957 220.115 863.355 217.686 860.771 215.179C857.873 212.398 856.385 209.578 856.033 206.405C855.72 203.31 856.464 200.333 858.147 198.022Z" fill="white"/>
<path d="M1090.09 105.211C1103.19 92.1015 1103.19 70.8467 1090.09 57.7371C1076.99 44.6275 1055.74 44.6275 1042.64 57.7371C1029.53 70.8467 1029.53 92.1015 1042.64 105.211C1055.74 118.321 1076.99 118.321 1090.09 105.211Z" fill="#B9FF66"/>
<path d="M1066.36 115.892C1047.41 115.892 1031.94 100.459 1031.94 81.4606C1031.94 62.5018 1047.37 47.0293 1066.36 47.0293C1085.35 47.0293 1100.77 62.4627 1100.77 81.4606C1100.77 100.419 1085.35 115.892 1066.36 115.892ZM1066.36 48.7528C1048.35 48.7528 1033.66 63.4028 1033.66 81.4606C1033.66 99.4792 1048.31 114.168 1066.36 114.168C1084.37 114.168 1099.05 99.5184 1099.05 81.4606C1099.05 63.4419 1084.41 48.7528 1066.36 48.7528Z" fill="#B9FF66"/>
<path d="M1075.44 84.79C1073.56 84.79 1071.92 85.6909 1070.82 87.1011L1059.5 82.6747C1059.5 82.5181 1059.54 82.4005 1059.54 82.2439C1059.54 81.9697 1059.5 81.6955 1059.47 81.4213L1071.06 76.0548C1072.11 77.2691 1073.68 78.0526 1075.44 78.0917C1078.65 78.0917 1081.31 75.4673 1081.31 72.2161C1081.31 68.9649 1078.69 66.3013 1075.44 66.3013C1072.23 66.3013 1069.57 68.9257 1069.57 72.1769C1069.57 72.4511 1069.61 72.7253 1069.65 72.9995L1058.06 78.3659C1057 77.1516 1055.43 76.3682 1053.67 76.329C1050.46 76.329 1047.8 78.9535 1047.8 82.2047C1047.8 85.4559 1050.42 88.1195 1053.67 88.1195C1055.55 88.1195 1057.19 87.2186 1058.29 85.8084L1069.61 90.2347C1069.61 90.3914 1069.57 90.5089 1069.57 90.6656C1069.57 93.9168 1072.19 96.5804 1075.44 96.5804C1078.65 96.5804 1081.31 93.956 1081.31 90.7048C1081.27 87.4536 1078.65 84.8291 1075.44 84.79Z" fill="black"/>
<path d="M919.733 466.565C935.099 455.895 938.96 434.855 928.356 419.571C917.751 404.287 896.698 400.547 881.331 411.217C865.965 421.887 862.104 442.927 872.708 458.211C883.313 473.495 904.366 477.235 919.733 466.565Z" fill="black"/>
<path d="M892.077 454.945L887.144 428.191C886.909 426.82 888.162 425.685 889.493 426.037L918.664 434.302C920.152 434.733 920.504 436.652 919.29 437.592L895.014 456.081C893.957 456.943 892.351 456.355 892.077 454.945Z" fill="white"/>
<path d="M1043.91 370.261C1062.89 361.02 1070.83 338.233 1061.65 319.366C1052.47 300.498 1029.64 292.696 1010.67 301.937C991.69 311.179 983.75 333.966 992.931 352.833C1002.11 371.7 1024.94 379.503 1043.91 370.261Z" fill="#B9FF66"/>
<path d="M1027.1 375.027C1023.02 375.027 1018.87 374.4 1014.84 373.029C1004.97 369.739 996.986 362.845 992.366 353.522C987.746 344.238 987.041 333.701 990.369 323.83C997.26 303.5 1019.42 292.415 1039.82 299.192C1049.69 302.482 1057.68 309.376 1062.3 318.699C1066.92 327.982 1067.62 338.519 1064.29 348.39C1058.73 364.686 1043.42 375.027 1027.1 375.027ZM1027.49 298.957C1011.87 298.957 997.221 308.828 991.935 324.418C988.764 333.858 989.429 343.925 993.854 352.778C998.278 361.669 1005.91 368.289 1015.35 371.423C1034.85 377.886 1056.03 367.31 1062.61 347.881C1065.78 338.441 1065.12 328.374 1060.69 319.521C1056.27 310.63 1048.63 304.01 1039.2 300.876C1035.32 299.544 1031.36 298.957 1027.49 298.957Z" fill="black"/>
<path d="M1046.75 329.941C1046.36 339.46 1030.27 361.709 1026.43 366.918C1026.04 367.467 1025.22 367.428 1024.87 366.84C1022.44 362.923 1014.41 349.762 1010.22 339.107C1008.54 334.877 1007.48 331.038 1007.6 328.335C1008.03 317.524 1017.15 309.102 1027.96 309.533C1038.77 310.042 1047.18 319.13 1046.75 329.941Z" fill="black"/>
<path d="M1033.51 335.506C1037.01 332.003 1037.01 326.324 1033.51 322.821C1030.01 319.318 1024.33 319.318 1020.83 322.821C1017.33 326.324 1017.33 332.003 1020.83 335.506C1024.33 339.009 1030.01 339.009 1033.51 335.506Z" fill="#B9FF66"/>
<path d="M17.792 211.949L0.789149 166.617L48.1609 176.754L93.432 159.867L83.3103 207.175L100.192 252.648L52.9414 242.37L7.54883 259.397L17.792 211.949Z" fill="#B9FF66"/>
<path d="M17.792 211.949L0.789149 166.617L48.1609 176.754L93.432 159.867L83.3103 207.175L100.192 252.648L52.9414 242.37L7.54883 259.397L17.792 211.949Z" fill="#B9FF66"/>
<path d="M17.792 211.949L0.789149 166.617L48.1609 176.754L93.432 159.867L83.3103 207.175L100.192 252.648L52.9414 242.37L7.54883 259.397L17.792 211.949Z" stroke="white" stroke-miterlimit="10"/>
<path d="M17.792 211.949L0.789149 166.617L48.1609 176.754L93.432 159.867L83.3103 207.175L100.192 252.648L52.9414 242.37L7.54883 259.397L17.792 211.949Z" stroke="white" stroke-miterlimit="10"/>
<g clip-path="url(#clip1_1906_141)">
<path d="M509.18 142.792L619.044 8.32309L673.057 173.46L807.056 283.344L642.145 337.29L531.626 471.637L478.268 306.623L343.613 196.616L509.18 142.792Z" fill="#B9FF66"/>
<path d="M509.18 142.792L619.044 8.32309L673.057 173.46L807.056 283.344L642.145 337.29L531.626 471.637L478.268 306.623L343.613 196.616L509.18 142.792Z" fill="#B9FF66"/>
<path d="M509.18 142.792L619.044 8.32309L673.057 173.46L807.056 283.344L642.145 337.29L531.626 471.637L478.268 306.623L343.613 196.616L509.18 142.792Z" stroke="white" stroke-miterlimit="10"/>
<path d="M509.18 142.792L619.044 8.32309L673.057 173.46L807.056 283.344L642.145 337.29L531.626 471.637L478.268 306.623L343.613 196.616L509.18 142.792Z" stroke="white" stroke-miterlimit="10"/>
</g>
<defs>
<clipPath id="clip0_1906_141">
<rect width="36" height="36" fill="white" transform="translate(135.562 339.198)"/>
</clipPath>
<clipPath id="clip1_1906_141">
<rect width="340.719" height="340.212" fill="white" transform="translate(339.025 195.757) rotate(-34.3577)"/>
</clipPath>
</defs>
</svg>
