<svg width="601" height="515" viewBox="0 0 601 515" fill="none" xmlns="http://www.w3.org/2000/svg">
<g clip-path="url(#clip0_332_1228)">
<path d="M131.501 389.535L149.102 384.349L143.966 402L149.102 419.601L131.501 414.465L113.85 419.601L119.035 402L113.85 384.349L131.501 389.535Z" fill="black" stroke="white" stroke-miterlimit="10"/>
</g>
<path d="M345.582 201.187C414.021 238.937 472.754 278.935 512.387 313.077C532.206 330.151 547.229 345.742 556.302 358.842C560.84 365.393 563.872 371.297 565.284 376.433C566.695 381.568 566.475 385.89 564.576 389.333C562.676 392.777 559.138 395.268 554.043 396.813C548.945 398.359 542.333 398.943 534.372 398.6C518.452 397.913 497.25 393.524 472.236 385.868C422.216 370.558 357.053 342.216 288.614 304.465C220.175 266.715 161.441 226.717 121.808 192.575C101.989 175.501 86.9671 159.91 77.8935 146.81C73.3561 140.259 70.3225 134.355 68.9107 129.218C67.4996 124.084 67.7191 119.763 69.6185 116.319C71.5181 112.875 75.0566 110.384 80.152 108.839C85.2497 107.293 91.8624 106.709 99.8237 107.052C115.744 107.739 136.945 112.128 161.959 119.784C211.979 135.094 277.142 163.436 345.582 201.187Z" stroke="black"/>
<path d="M325.351 237.861C393.79 275.611 452.524 315.609 492.156 349.751C511.976 366.825 526.998 382.416 536.072 395.516C540.609 402.066 543.642 407.971 545.054 413.107C546.465 418.241 546.245 422.563 544.345 426.007C542.446 429.451 538.908 431.942 533.812 433.487C528.715 435.033 522.103 435.617 514.142 435.274C498.221 434.587 477.02 430.198 452.005 422.542C401.985 407.232 336.823 378.89 268.384 341.139C199.944 303.389 141.21 263.391 101.578 229.249C81.7587 212.175 66.7366 196.584 57.663 183.484C53.1256 176.933 50.0921 171.029 48.6802 165.892C47.2691 160.758 47.4887 156.437 49.388 152.993C51.2876 149.549 54.8261 147.057 59.9215 145.512C65.0193 143.966 71.632 143.383 79.5932 143.726C95.5136 144.413 116.715 148.802 141.729 156.458C191.749 171.768 256.912 200.11 325.351 237.861Z" stroke="black"/>
<path d="M305.125 274.535C373.564 312.285 432.297 352.283 471.93 386.425C491.749 403.499 506.772 419.09 515.845 432.19C520.383 438.741 523.415 444.645 524.827 449.782C526.238 454.916 526.018 459.238 524.119 462.682C522.219 466.125 518.681 468.616 513.586 470.161C508.488 471.707 501.876 472.292 493.915 471.948C477.995 471.261 456.793 466.872 431.779 459.216C381.758 443.906 316.596 415.564 248.157 377.814C179.718 340.063 120.984 300.065 81.3512 265.923C61.5321 248.849 46.51 233.258 37.4364 220.158C32.8991 213.608 29.8655 207.703 28.4537 202.566C27.0425 197.433 27.2621 193.111 29.1615 189.667C31.0611 186.223 34.5996 183.732 39.6949 182.187C44.7927 180.641 51.4054 180.057 59.3667 180.4C75.287 181.087 96.4883 185.476 121.502 193.132C171.522 208.442 236.685 236.784 305.125 274.535Z" stroke="black"/>
<circle cx="131.496" cy="104.5" r="15.5" fill="#B9FF66"/>
<circle cx="420.99" cy="435" r="10" fill="#B9FF66"/>
<circle cx="81.498" cy="64.5" r="23.5" fill="black"/>
<path d="M475.188 81.5974C493.088 72.1937 500.012 50.1159 490.652 32.2852C481.292 14.4545 459.194 7.62311 441.294 17.0268C423.394 26.4305 416.47 48.5083 425.83 66.339C435.19 84.1697 457.288 91.0011 475.188 81.5974Z" fill="black"/>
<path d="M441.569 41.2352C443.292 38.8849 445.837 37.4356 448.735 37.1223C450.927 36.8872 452.963 37.3573 454.882 38.5324C455.861 39.12 456.722 39.8642 457.544 40.7652C458.132 39.7075 458.837 38.7674 459.659 37.984C461.264 36.4172 463.183 35.5162 465.336 35.2812C468.234 34.9678 471.053 35.8296 473.246 37.749C475.399 39.6292 476.77 42.3712 477.122 45.4657C477.475 48.6385 476.613 51.6939 474.42 55.0626C472.463 58.0787 469.487 61.2124 466.041 64.8945C464.867 66.1479 463.535 67.5581 462.165 69.0466C461.812 69.4383 461.303 69.7125 460.755 69.7517C460.207 69.83 459.698 69.6733 459.228 69.36C457.544 68.1848 455.939 67.0881 454.53 66.1479C450.379 63.3276 446.777 60.899 444.193 58.3921C441.295 55.611 439.807 52.7906 439.455 49.6178C439.142 46.5233 439.885 43.5463 441.569 41.2352Z" fill="white"/>
<path d="M576.737 83.5925C589.841 70.4829 589.841 49.2281 576.737 36.1185C563.633 23.0089 542.386 23.0089 529.282 36.1185C516.178 49.228 516.178 70.4829 529.282 83.5925C542.386 96.7021 563.633 96.7021 576.737 83.5925Z" fill="#B9FF66"/>
<path d="M553.003 94.2732C534.052 94.2732 518.586 78.8399 518.586 59.8419C518.586 40.8832 534.013 25.4106 553.003 25.4106C571.994 25.4106 587.421 40.844 587.421 59.8419C587.421 78.8007 571.994 94.2732 553.003 94.2732ZM553.003 27.1342C534.992 27.1342 520.309 41.7841 520.309 59.8419C520.309 77.8606 534.953 92.5497 553.003 92.5497C571.015 92.5497 585.698 77.8998 585.698 59.8419C585.698 41.8233 571.054 27.1342 553.003 27.1342Z" fill="#B9FF66"/>
<path d="M562.087 63.1713C560.207 63.1713 558.563 64.0723 557.467 65.4824L546.151 61.0561C546.151 60.8994 546.19 60.7819 546.19 60.6252C546.19 60.351 546.151 60.0768 546.112 59.8026L557.702 54.4362C558.759 55.6505 560.325 56.4339 562.087 56.4731C565.298 56.4731 567.96 53.8486 567.96 50.5974C567.96 47.3462 565.337 44.6826 562.087 44.6826C558.876 44.6826 556.214 47.3071 556.214 50.5583C556.214 50.8325 556.253 51.1067 556.292 51.3809L544.702 56.7473C543.645 55.533 542.079 54.7496 540.317 54.7104C537.106 54.7104 534.443 57.3348 534.443 60.586C534.443 63.8372 537.067 66.5009 540.317 66.5009C542.196 66.5009 543.841 65.5999 544.937 64.1898L556.253 68.6161C556.253 68.7728 556.214 68.8903 556.214 69.047C556.214 72.2982 558.837 74.9618 562.087 74.9618C565.298 74.9618 567.96 72.3373 567.96 69.0861C567.921 65.8349 565.298 63.2105 562.087 63.1713Z" fill="black"/>
<path d="M562.532 189.993C577.898 179.322 581.759 158.283 571.155 142.999C560.55 127.715 539.497 123.975 524.13 134.645C508.764 145.315 504.903 166.355 515.507 181.639C526.111 196.923 547.165 200.663 562.532 189.993Z" fill="black"/>
<path d="M534.876 178.373L529.943 151.619C529.708 150.248 530.961 149.112 532.292 149.465L561.463 157.73C562.95 158.161 563.303 160.08 562.089 161.02L537.813 179.509C536.756 180.371 535.15 179.783 534.876 178.373Z" fill="white"/>
<path d="M543 299.582C561.977 290.34 569.917 267.553 560.736 248.686C551.555 229.819 528.728 222.016 509.752 231.258C490.776 240.499 482.835 263.286 492.017 282.153C501.198 301.02 524.024 308.823 543 299.582Z" fill="#B9FF66"/>
<path d="M526.183 304.347C522.11 304.347 517.96 303.72 513.927 302.349C504.06 299.059 496.072 292.165 491.452 282.842C486.832 273.559 486.127 263.022 489.455 253.151C496.346 232.821 518.508 221.735 538.908 228.512C548.775 231.802 556.763 238.696 561.383 248.019C566.003 257.303 566.708 267.84 563.38 277.711C557.82 294.006 542.51 304.347 526.183 304.347ZM526.574 228.277C510.951 228.277 496.307 238.148 491.021 253.738C487.85 263.178 488.515 273.245 492.94 282.098C497.364 290.99 505 297.61 514.436 300.743C533.935 307.206 555.118 296.63 561.696 277.202C564.868 267.761 564.202 257.694 559.778 248.842C555.353 239.95 547.718 233.33 538.282 230.196C534.405 228.865 530.451 228.277 526.574 228.277Z" fill="black"/>
<path d="M545.84 259.261C545.448 268.78 529.356 291.029 525.518 296.239C525.127 296.787 524.305 296.748 523.952 296.16C521.524 292.243 513.498 279.082 509.308 268.427C507.624 264.197 506.567 260.358 506.685 257.655C507.115 246.844 516.239 238.422 527.045 238.853C537.852 239.362 546.271 248.45 545.84 259.261Z" fill="black"/>
<path d="M532.595 264.827C536.097 261.324 536.097 255.644 532.595 252.141C529.093 248.638 523.416 248.638 519.914 252.141C516.413 255.644 516.413 261.324 519.914 264.827C523.416 268.33 529.093 268.33 532.595 264.827Z" fill="#B9FF66"/>
<defs>
<clipPath id="clip0_332_1228">
<rect width="36" height="36" fill="white" transform="translate(113.502 384)"/>
</clipPath>
</defs>
</svg>
